<?xml version="1.0" encoding="iso-8859-1"?>
<!-- Generator: Adobe Illustrator 19.0.0, SVG Export Plug-In . SVG Version: 6.00 Build 0)  -->
<svg version="1.1" id="Capa_1" xmlns="http://www.w3.org/2000/svg" xmlns:xlink="http://www.w3.org/1999/xlink" x="0px" y="0px"
	 viewBox="0 0 512 512" style="enable-background:new 0 0 512 512;" xml:space="preserve">
<g>
	<g>
		<path d="M467,16H45C20.187,16,0,36.187,0,61v300c0,24.813,20.187,45,45,45h46v75c0,6.067,3.655,11.537,9.26,13.858
			c5.606,2.321,12.057,1.038,16.347-3.252L202.213,406H467c24.813,0,45-20.187,45-45V61C512,36.187,491.813,16,467,16z M482,361
			c0,8.271-6.729,15-15,15H196c-3.978,0-7.793,1.581-10.606,4.394L121,444.786V391c0-8.284-6.716-15-15-15H45
			c-8.271,0-15-6.729-15-15V61c0-8.271,6.729-15,15-15h422c8.271,0,15,6.729,15,15V361z"/>
	</g>
</g>
<g>
	<g>
		<path d="M375.286,175.911c-1.754-5.479-6.485-9.471-12.179-10.279l-64.804-9.194l-28.916-57.205C266.834,94.183,261.658,91,256,91
			c-5.658,0-10.834,3.184-13.387,8.233l-28.916,57.205l-64.804,9.194c-5.694,0.808-10.425,4.8-12.179,10.277
			c-1.754,5.477-0.221,11.475,3.945,15.439l46.676,44.422l-11.002,62.633c-0.985,5.608,1.29,11.291,5.874,14.669
			c4.583,3.378,10.684,3.871,15.75,1.271L256,284.551l58.043,29.794c5.066,2.6,11.167,2.108,15.75-1.271
			c4.583-3.379,6.858-9.061,5.874-14.669l-11.002-62.633l46.676-44.422C375.507,187.385,377.04,181.388,375.286,175.911z
			 M298.159,219.582c-3.638,3.462-5.302,8.515-4.433,13.461l7.173,40.833l-38.049-19.531c-2.15-1.104-4.5-1.655-6.85-1.655
			c-2.35,0-4.7,0.552-6.85,1.655l-38.049,19.531l7.173-40.833c0.869-4.946-0.795-9.999-4.433-13.461l-30.052-28.601l41.871-5.941
			c4.855-0.688,9.068-3.708,11.28-8.084L256,139.25l19.06,37.706c2.212,4.377,6.424,7.396,11.28,8.084l41.871,5.941L298.159,219.582
			z"/>
	</g>
</g>
<g>
</g>
<g>
</g>
<g>
</g>
<g>
</g>
<g>
</g>
<g>
</g>
<g>
</g>
<g>
</g>
<g>
</g>
<g>
</g>
<g>
</g>
<g>
</g>
<g>
</g>
<g>
</g>
<g>
</g>
</svg>
