<?xml version="1.0" encoding="UTF-8"?>
<svg xmlns="http://www.w3.org/2000/svg" xmlns:xlink="http://www.w3.org/1999/xlink" width="130pt" height="130pt" viewBox="0 0 130 130" version="1.1">
<g id="surface1">
<path style=" stroke:none;fill-rule:nonzero;fill:rgb(0%,0%,0%);fill-opacity:1;" d="M 64.996094 15.230469 C 62.894531 15.230469 61.1875 16.933594 61.1875 19.039062 C 61.1875 21.140625 62.894531 22.847656 64.996094 22.847656 C 77.597656 22.847656 87.851562 33.101562 87.851562 45.699219 C 87.851562 47.800781 89.558594 49.507812 91.660156 49.507812 C 93.761719 49.507812 95.46875 47.800781 95.46875 45.699219 C 95.46875 28.898438 81.800781 15.230469 64.996094 15.230469 Z M 64.996094 15.230469 "/>
<path style=" stroke:none;fill-rule:nonzero;fill:rgb(0%,0%,0%);fill-opacity:1;" d="M 55.183594 1.023438 C 37.976562 4.617188 24.023438 18.4375 20.351562 35.75 C 17.253906 50.371094 21.074219 65.050781 30.832031 76.023438 C 35.601562 81.386719 38.339844 88.464844 38.339844 95.464844 L 38.339844 103.082031 C 38.339844 108.152344 41.65625 112.457031 46.238281 113.949219 C 47.738281 122.839844 55.457031 129.996094 65 129.996094 C 74.539062 129.996094 82.261719 122.84375 83.761719 113.949219 C 88.34375 112.457031 91.660156 108.152344 91.660156 103.082031 L 91.660156 95.464844 C 91.660156 88.453125 94.40625 81.457031 99.390625 75.769531 C 106.6875 67.445312 110.703125 56.769531 110.703125 45.699219 C 110.703125 16.867188 84.308594 -5.0625 55.183594 1.023438 Z M 65 122.378906 C 60.105469 122.378906 55.8125 119.011719 54.226562 114.480469 L 75.773438 114.480469 C 74.1875 119.011719 69.894531 122.378906 65 122.378906 Z M 84.042969 103.082031 C 84.042969 105.183594 82.332031 106.890625 80.234375 106.890625 L 49.765625 106.890625 C 47.667969 106.890625 45.957031 105.183594 45.957031 103.082031 L 45.957031 99.273438 L 84.042969 99.273438 Z M 93.660156 70.75 C 88.351562 76.8125 85.078125 84.121094 84.253906 91.65625 L 45.75 91.65625 C 44.921875 84.113281 41.660156 76.734375 36.523438 70.957031 C 28.390625 61.8125 25.214844 49.558594 27.800781 37.332031 C 30.828125 23.058594 42.457031 11.464844 56.738281 8.480469 C 81.121094 3.386719 103.085938 21.695312 103.085938 45.699219 C 103.085938 54.917969 99.738281 63.816406 93.660156 70.75 Z M 93.660156 70.75 "/>
<path style=" stroke:none;fill-rule:nonzero;fill:rgb(0%,0%,0%);fill-opacity:1;" d="M 11.425781 45.699219 L 3.808594 45.699219 C 1.707031 45.699219 0 47.402344 0 49.507812 C 0 51.609375 1.707031 53.316406 3.808594 53.316406 L 11.425781 53.316406 C 13.527344 53.316406 15.234375 51.609375 15.234375 49.507812 C 15.234375 47.402344 13.527344 45.699219 11.425781 45.699219 Z M 11.425781 45.699219 "/>
<path style=" stroke:none;fill-rule:nonzero;fill:rgb(0%,0%,0%);fill-opacity:1;" d="M 13.003906 26.65625 L 7.617188 21.273438 C 6.132812 19.785156 3.71875 19.785156 2.230469 21.273438 C 0.746094 22.757812 0.746094 25.171875 2.230469 26.65625 L 7.617188 32.042969 C 9.101562 33.53125 11.515625 33.53125 13.003906 32.042969 C 14.488281 30.558594 14.488281 28.144531 13.003906 26.65625 Z M 13.003906 26.65625 "/>
<path style=" stroke:none;fill-rule:nonzero;fill:rgb(0%,0%,0%);fill-opacity:1;" d="M 13.003906 66.976562 C 11.515625 65.488281 9.101562 65.488281 7.617188 66.976562 L 2.230469 72.359375 C 0.746094 73.847656 0.746094 76.261719 2.230469 77.746094 C 3.71875 79.234375 6.132812 79.234375 7.617188 77.746094 L 13.003906 72.359375 C 14.488281 70.875 14.488281 68.460938 13.003906 66.976562 Z M 13.003906 66.976562 "/>
<path style=" stroke:none;fill-rule:nonzero;fill:rgb(0%,0%,0%);fill-opacity:1;" d="M 126.191406 45.699219 L 118.574219 45.699219 C 116.472656 45.699219 114.765625 47.402344 114.765625 49.507812 C 114.765625 51.609375 116.472656 53.316406 118.574219 53.316406 L 126.191406 53.316406 C 128.292969 53.316406 130 51.609375 130 49.507812 C 130 47.402344 128.292969 45.699219 126.191406 45.699219 Z M 126.191406 45.699219 "/>
<path style=" stroke:none;fill-rule:nonzero;fill:rgb(0%,0%,0%);fill-opacity:1;" d="M 127.769531 21.273438 C 126.28125 19.785156 123.867188 19.785156 122.382812 21.273438 L 116.996094 26.65625 C 115.511719 28.144531 115.511719 30.558594 116.996094 32.042969 C 118.484375 33.53125 120.898438 33.53125 122.382812 32.042969 L 127.769531 26.65625 C 129.253906 25.171875 129.253906 22.757812 127.769531 21.273438 Z M 127.769531 21.273438 "/>
<path style=" stroke:none;fill-rule:nonzero;fill:rgb(0%,0%,0%);fill-opacity:1;" d="M 127.769531 72.359375 L 122.382812 66.976562 C 120.898438 65.488281 118.484375 65.488281 116.996094 66.976562 C 115.511719 68.460938 115.511719 70.875 116.996094 72.359375 L 122.382812 77.746094 C 123.867188 79.234375 126.28125 79.234375 127.769531 77.746094 C 129.253906 76.261719 129.253906 73.847656 127.769531 72.359375 Z M 127.769531 72.359375 "/>
</g>
</svg>
