<?xml version="1.0" standalone="no"?>
<!DOCTYPE svg PUBLIC "-//W3C//DTD SVG 20010904//EN"
 "http://www.w3.org/TR/2001/REC-SVG-20010904/DTD/svg10.dtd">
<svg version="1.0" xmlns="http://www.w3.org/2000/svg"
 width="900.000000pt" height="900.000000pt" viewBox="0 0 900.000000 900.000000"
 preserveAspectRatio="xMidYMid meet">
<metadata>
Created by potrace 1.10, written by Peter Selinger 2001-2011
</metadata>
<g transform="translate(0.000000,900.000000) scale(0.100000,-0.100000)"
fill="#000000" stroke="none">
<path d="M7176 8985 c-3 -8 -18 -17 -33 -20 -15 -3 -55 -12 -88 -20 -393 -89
-936 -118 -1575 -84 -220 11 -227 11 -265 -9 -72 -36 -105 -88 -105 -162 0
-70 32 -123 94 -157 26 -14 88 -18 381 -27 581 -18 990 -2 1305 50 107 18 146
16 144 -6 -1 -8 -9 -40 -18 -70 -50 -179 -126 -323 -232 -441 -71 -79 -90
-126 -79 -196 7 -47 27 -72 142 -170 209 -180 338 -575 337 -1033 0 -280 -53
-653 -131 -932 -16 -58 -16 -58 -54 -58 -48 0 -52 8 -68 135 -34 277 -131 564
-252 742 -16 24 -29 46 -29 49 0 26 -241 287 -315 342 -16 12 -51 37 -76 56
-25 19 -86 56 -135 82 -76 41 -96 48 -149 48 -53 1 -67 -3 -98 -27 -61 -47
-72 -71 -73 -167 -2 -153 -3 -160 -20 -160 -9 0 -40 22 -70 49 -53 49 -167
129 -234 165 -19 10 -54 29 -76 41 -73 40 -251 112 -344 138 -277 78 -480 107
-758 107 -190 0 -309 -11 -487 -46 -254 -50 -458 -144 -621 -285 -36 -31 -51
-37 -130 -48 -247 -33 -481 -153 -645 -328 -102 -110 -237 -325 -268 -428 -5
-16 -19 -54 -30 -84 -24 -63 -54 -185 -71 -288 -13 -79 -20 -90 -66 -94 -39
-4 -61 13 -69 54 -4 18 -12 52 -19 77 -99 343 -126 887 -60 1190 8 36 14 72
14 80 0 32 72 238 109 311 70 139 167 263 261 331 46 34 141 85 193 104 65 23
215 54 266 54 57 0 104 27 161 95 86 102 211 212 330 291 52 35 199 110 250
128 68 25 156 54 213 70 144 41 167 50 196 80 81 84 56 222 -50 276 -46 24
-94 25 -168 4 -31 -8 -81 -22 -111 -31 -30 -8 -73 -22 -95 -30 -22 -8 -57 -21
-77 -29 -257 -95 -489 -248 -678 -447 -55 -58 -93 -77 -156 -77 -17 0 -53 -7
-80 -15 -27 -9 -71 -23 -99 -31 -69 -22 -211 -93 -260 -129 -22 -17 -51 -38
-65 -47 -40 -27 -123 -108 -177 -173 -47 -58 -113 -151 -113 -161 0 -2 -11
-22 -24 -43 -78 -123 -158 -370 -200 -616 -58 -337 -30 -859 65 -1230 18 -70
41 -149 56 -192 22 -63 19 -94 -14 -143 -155 -236 -79 -562 167 -721 92 -59
140 -72 292 -78 155 -7 152 -5 187 -91 65 -158 181 -357 297 -510 231 -306
514 -544 864 -726 36 -18 126 -58 190 -84 30 -12 70 -28 88 -36 18 -8 42 -14
52 -14 11 0 29 -9 40 -20 17 -17 19 -28 14 -82 -6 -64 -30 -153 -58 -219 -21
-50 -78 -106 -134 -132 -44 -20 -67 -22 -362 -27 -201 -4 -335 -11 -370 -19
-161 -37 -341 -110 -417 -167 -17 -13 -36 -24 -40 -24 -17 0 -191 -159 -247
-226 -76 -89 -112 -144 -165 -252 -58 -117 -87 -208 -111 -352 -19 -107 -20
-165 -20 -798 0 -673 0 -683 21 -724 24 -47 45 -70 76 -87 31 -16 5055 -16
5086 0 33 18 61 50 80 91 15 33 17 99 17 725 0 636 -2 696 -20 798 -45 256
-141 454 -309 636 -65 71 -200 189 -215 189 -4 0 -22 11 -39 24 -79 59 -252
129 -417 167 -35 8 -169 15 -370 19 -292 5 -318 7 -361 27 -107 49 -178 179
-192 351 -4 54 -2 67 14 83 10 10 28 19 39 19 10 0 34 6 52 14 18 8 58 24 88
36 512 205 936 573 1224 1063 10 18 41 77 68 132 27 55 56 113 64 128 8 16 14
35 14 43 0 31 43 42 180 47 149 5 186 15 280 76 124 80 207 200 236 339 17 84
18 119 0 207 -16 81 -28 111 -74 182 -38 59 -38 59 10 243 103 395 151 835
128 1167 -20 303 -76 532 -183 752 -46 96 -74 140 -160 255 l-59 78 31 44 c17
25 31 47 31 49 0 2 13 26 28 52 62 108 133 301 166 453 40 189 46 227 46 295
0 63 -3 77 -29 111 -15 22 -40 48 -55 57 -15 10 -24 22 -21 27 4 6 -23 10 -68
10 -57 0 -76 -4 -81 -15z m-2531 -2111 c55 -8 123 -22 151 -30 28 -7 58 -14
67 -14 24 0 208 -62 295 -100 228 -97 398 -232 520 -414 62 -91 103 -118 181
-118 53 0 66 4 102 32 55 45 116 174 152 325 8 30 19 51 28 53 16 3 118 -96
172 -168 53 -71 120 -189 154 -270 50 -119 93 -260 93 -303 0 -14 5 -38 11
-54 6 -15 15 -107 21 -203 11 -199 20 -227 86 -277 l44 -33 130 0 c113 0 137
-3 173 -21 42 -21 90 -81 101 -127 16 -62 -27 -143 -96 -182 -43 -24 -55 -25
-241 -30 -192 -5 -196 -5 -230 -31 -35 -27 -45 -42 -72 -114 -136 -358 -272
-573 -511 -811 -228 -227 -445 -368 -751 -486 -27 -11 -63 -24 -80 -28 -16 -5
-55 -16 -85 -25 -161 -47 -285 -66 -475 -71 -370 -12 -599 29 -918 161 -455
188 -841 553 -1065 1006 -34 69 -62 133 -62 142 0 9 -4 18 -9 21 -4 3 -18 36
-31 73 -26 78 -48 112 -87 139 -24 16 -54 20 -223 24 -202 6 -230 11 -283 58
-25 22 -57 95 -57 129 0 39 38 100 83 137 39 31 39 31 187 36 148 5 148 5 187
36 57 46 71 84 78 215 12 223 71 421 180 608 128 220 387 371 636 371 99 0
123 11 209 99 74 76 102 97 181 134 103 48 181 72 354 108 146 30 512 32 700
3z m-155 -3849 c146 0 285 2 310 5 l44 5 19 -90 c27 -137 45 -192 89 -282 22
-45 37 -86 33 -92 -17 -29 -152 -103 -235 -131 -186 -61 -334 -61 -520 0 -83
28 -218 102 -235 130 -4 6 11 48 33 93 49 100 57 125 83 252 27 136 22 127 71
118 24 -5 162 -8 308 -8z m-744 -708 c178 -151 369 -233 617 -264 117 -15 137
-15 255 0 247 32 439 113 617 265 30 25 46 32 65 28 14 -3 48 -10 75 -16 28
-6 190 -15 360 -19 318 -8 348 -12 470 -59 232 -88 428 -283 511 -506 15 -40
20 -58 44 -156 6 -28 9 -141 8 -295 l-3 -250 -334 -3 c-211 -1 -338 1 -346 8
-6 5 -17 27 -24 47 -49 149 -244 166 -320 28 -14 -26 -17 -82 -21 -405 l-5
-375 -1225 0 -1225 0 -5 375 c-6 422 -4 414 -82 470 -33 24 -51 30 -94 30 -44
0 -59 -5 -95 -32 -44 -35 -48 -40 -76 -103 l-18 -40 -340 0 -340 0 -3 250 c-3
306 6 361 95 540 93 186 269 343 468 418 124 46 152 50 470 58 287 7 395 16
412 32 15 16 52 5 89 -26z m-842 -1643 c3 -9 6 -82 6 -164 0 -113 -3 -150 -14
-159 -9 -8 -109 -11 -347 -9 l-334 3 -3 160 c-1 87 0 165 2 172 4 10 77 13
345 13 300 0 340 -2 345 -16z m3861 -159 l0 -170 -334 -3 c-188 -1 -339 2
-344 7 -10 10 -12 315 -2 331 4 7 115 9 343 8 l337 -3 0 -170z"/>
<path d="M3703 5372 c-64 -26 -129 -86 -153 -138 -51 -117 -6 -278 94 -332
113 -61 225 -52 314 23 64 55 86 106 86 202 1 80 0 83 -40 140 -71 100 -203
147 -301 105z"/>
<path d="M5101 5367 c-62 -24 -111 -69 -143 -130 -17 -32 -22 -60 -22 -117 -1
-69 2 -80 33 -128 86 -135 222 -168 367 -90 33 18 70 62 98 115 24 48 22 171
-5 223 -43 81 -154 151 -239 149 -19 0 -59 -10 -89 -22z"/>
<path d="M4050 4343 c-64 -12 -130 -98 -130 -168 0 -42 28 -101 62 -131 85
-77 340 -154 508 -154 76 0 225 26 313 54 68 22 167 73 199 103 82 78 74 199
-18 269 -50 39 -136 39 -211 0 -97 -50 -167 -66 -282 -66 -113 0 -188 17 -282
64 -50 26 -116 38 -159 29z"/>
<path d="M4443 8876 c-23 -6 -54 -22 -69 -36 -32 -30 -64 -95 -64 -130 0 -44
37 -108 81 -139 35 -26 51 -31 99 -31 48 0 64 5 99 31 44 31 81 95 81 139 0
63 -67 151 -125 164 -16 4 -37 8 -45 10 -8 2 -34 -1 -57 -8z"/>
</g>
</svg>
