<?xml version="1.0" encoding="UTF-8"?>
<svg xmlns="http://www.w3.org/2000/svg" xmlns:xlink="http://www.w3.org/1999/xlink" width="420pt" height="420pt" viewBox="0 0 420 420" version="1.1">
<g id="surface1">
<path style=" stroke:none;fill-rule:nonzero;fill:rgb(0%,0%,0%);fill-opacity:1;" d="M 123.867188 345.351562 C 123.867188 331.171875 117.832031 318.382812 108.207031 309.394531 L 108.210938 309.328125 C 109.085938 297.28125 109.789062 284.578125 110.328125 271.476562 C 135.519531 276.222656 153.375 285.773438 163.480469 299.960938 C 176.511719 318.257812 173.039062 339.742188 171.667969 345.894531 C 167.085938 366.394531 179.226562 387.160156 199.792969 391.113281 C 211.675781 393.394531 223.539062 394.535156 235.320312 394.535156 C 276.632812 394.535156 318.0625 380.414062 352.261719 352.167969 C 395.296875 316.625 419.984375 264.808594 420 210.003906 C 420.027344 106.132812 329.691406 21.394531 235.351562 24.78125 C 183.804688 26.632812 137.484375 52.023438 105.542969 79.972656 C 105.136719 76.164062 104.707031 72.457031 104.261719 68.859375 C 101.917969 50.007812 99.148438 35.0625 96.035156 24.441406 C 93.890625 17.128906 88.867188 0 74.648438 0 C 60.429688 0 55.40625 17.128906 53.261719 24.441406 C 50.148438 35.0625 47.378906 50.007812 45.035156 68.859375 C 40.328125 106.746094 37.734375 156.871094 37.734375 210 C 37.734375 244.710938 38.894531 279.058594 41.085938 309.324219 L 41.089844 309.394531 C 31.464844 318.382812 25.429688 331.171875 25.429688 345.351562 L 25.429688 370.78125 C 25.429688 384.121094 13.785156 395.390625 0 395.390625 L 0 420 L 50.039062 420 C 90.6875 420 123.867188 386.3125 123.867188 345.351562 Z M 236.234375 49.375 C 315.515625 46.53125 395.417969 118.914062 395.390625 209.996094 C 395.378906 257.4375 373.945312 302.339844 336.589844 333.195312 C 299.675781 363.683594 251.503906 375.984375 204.433594 366.945312 C 197.582031 365.628906 194.136719 358.179688 195.683594 351.257812 C 198.164062 340.160156 201.945312 311.546875 183.523438 285.683594 C 169.074219 265.394531 144.746094 252.28125 111.128906 246.621094 C 111.414062 234.570312 111.558594 209.082031 111.558594 208.625 C 116.355469 214.210938 122.707031 218.234375 129.972656 220.179688 C 149.675781 225.460938 169.925781 213.691406 175.183594 194.078125 C 180.449219 174.414062 168.738281 154.136719 149.078125 148.867188 C 134.3125 144.910156 119.574219 150.484375 110.816406 161.304688 C 110.269531 143.828125 109.425781 127.058594 108.308594 111.386719 C 136.152344 81.96875 183.230469 51.277344 236.234375 49.375 Z M 127.640625 181.335938 C 129.402344 174.769531 136.140625 170.875 142.710938 172.636719 C 149.265625 174.394531 153.167969 181.152344 151.410156 187.707031 C 149.65625 194.261719 142.890625 198.164062 136.339844 196.40625 C 129.773438 194.648438 125.878906 187.90625 127.640625 181.335938 Z M 68.246094 82.394531 C 70.371094 62.589844 72.644531 49.164062 74.648438 40.128906 C 76.652344 49.164062 78.925781 62.589844 81.050781 82.394531 C 84.855469 117.855469 86.953125 163.175781 86.953125 210 C 86.953125 214.109375 86.9375 218.214844 86.902344 222.304688 L 62.394531 222.304688 C 62.359375 218.214844 62.34375 214.109375 62.34375 210 C 62.34375 163.175781 64.441406 117.855469 68.246094 82.394531 Z M 62.789062 246.90625 L 86.507812 246.90625 C 86.085938 264.28125 85.367188 281.183594 84.371094 297.101562 C 81.226562 296.46875 77.976562 296.132812 74.648438 296.132812 C 71.320312 296.132812 68.070312 296.46875 64.925781 297.101562 C 63.929688 281.183594 63.214844 264.285156 62.789062 246.90625 Z M 50.039062 370.78125 L 50.039062 345.351562 C 50.039062 331.78125 61.078125 320.742188 74.648438 320.742188 C 88.21875 320.742188 99.257812 331.78125 99.257812 345.351562 C 99.257812 372.941406 77.179688 395.390625 50.039062 395.390625 L 43.265625 395.390625 C 47.683594 387.972656 50.039062 379.546875 50.039062 370.78125 Z M 50.039062 370.78125 "/>
<path style=" stroke:none;fill-rule:nonzero;fill:rgb(0%,0%,0%);fill-opacity:1;" d="M 330.316406 166.496094 C 344.742188 152.070312 344.746094 128.71875 330.316406 114.292969 C 315.925781 99.898438 292.507812 99.898438 278.113281 114.292969 C 263.6875 128.71875 263.683594 152.066406 278.113281 166.496094 C 292.503906 180.890625 315.925781 180.890625 330.316406 166.496094 Z M 295.515625 131.695312 C 300.3125 126.898438 308.117188 126.894531 312.917969 131.695312 C 317.726562 136.503906 317.726562 144.285156 312.917969 149.09375 C 308.117188 153.894531 300.3125 153.890625 295.515625 149.09375 C 290.707031 144.285156 290.703125 136.503906 295.515625 131.695312 Z M 295.515625 131.695312 "/>
<path style=" stroke:none;fill-rule:nonzero;fill:rgb(0%,0%,0%);fill-opacity:1;" d="M 218.683594 150.574219 C 238.347656 145.304688 250.058594 125.023438 244.789062 105.363281 C 239.519531 85.703125 219.238281 73.992188 199.578125 79.261719 C 179.917969 84.527344 168.207031 104.808594 173.476562 124.472656 C 178.757812 144.175781 198.976562 155.855469 218.683594 150.574219 Z M 205.949219 103.03125 C 212.515625 101.273438 219.265625 105.195312 221.019531 111.730469 C 222.773438 118.285156 218.871094 125.046875 212.316406 126.800781 C 205.75 128.5625 199.007812 124.671875 197.246094 118.101562 C 195.492188 111.546875 199.394531 104.789062 205.949219 103.03125 Z M 205.949219 103.03125 "/>
<path style=" stroke:none;fill-rule:nonzero;fill:rgb(0%,0%,0%);fill-opacity:1;" d="M 224.429688 314.636719 C 229.691406 334.269531 249.953125 346.015625 269.640625 340.738281 C 289.300781 335.472656 301.011719 315.191406 295.742188 295.53125 C 290.460938 275.828125 270.246094 264.144531 250.53125 269.425781 C 230.871094 274.695312 219.160156 294.976562 224.429688 314.636719 Z M 256.902344 293.199219 C 263.484375 291.433594 270.214844 295.34375 271.972656 301.898438 C 273.726562 308.453125 269.824219 315.210938 263.273438 316.96875 C 256.71875 318.726562 249.957031 314.820312 248.203125 308.269531 C 246.445312 301.714844 250.347656 294.953125 256.902344 293.199219 Z M 256.902344 293.199219 "/>
<path style=" stroke:none;fill-rule:nonzero;fill:rgb(0%,0%,0%);fill-opacity:1;" d="M 294.035156 225.925781 C 288.769531 245.585938 300.476562 265.867188 320.136719 271.132812 C 339.828125 276.410156 360.0625 264.753906 365.347656 245.03125 C 370.628906 225.328125 358.953125 205.101562 339.246094 199.824219 C 319.542969 194.539062 299.316406 206.214844 294.035156 225.925781 Z M 341.578125 238.664062 C 339.820312 245.230469 333.078125 249.125 326.507812 247.363281 C 319.953125 245.605469 316.050781 238.847656 317.808594 232.292969 C 319.5625 225.738281 326.292969 221.828125 332.878906 223.59375 C 339.429688 225.347656 343.332031 232.109375 341.578125 238.664062 Z M 341.578125 238.664062 "/>
</g>
</svg>
